<svg viewBox="0 0 20 18" xmlns="http://www.w3.org/2000/svg">
<path d="M16 8L20 4.0381L16 0V3.112C13.656 3.3397 11.995 3.9062 10.763 4.7319C9.84 5.3511 9.203 6.0885 8.715 6.8395C8.287 6.1098 7.738 5.3832 6.948 4.7718C5.493 3.6451 3.365 3 0 3V5C3.135 5 4.757 5.6049 5.724 6.3532C6.601 7.0325 7.058 7.9054 7.582 9.0039C7.51 9.1636 7.44401 9.3159 7.38 9.4619C7.017 10.2977 6.745 10.9236 6 11.5C5.033 12.2483 3.135 13 0 13V15C3.365 15 5.493 14.3549 6.948 13.2282C7.738 12.6168 8.287 11.8902 8.715 11.1605C9.203 11.9115 9.84 12.6489 10.763 13.2681C11.995 14.0938 13.656 14.6603 16 14.888V18L20 14.0381L16 10V12.8776C13.997 12.6614 12.732 12.18 11.877 11.6069C10.86 10.9247 10.316 10.0475 9.798 9C10.316 7.9525 10.86 7.0753 11.877 6.3931C12.732 5.82 13.997 5.3386 16 5.1224V8Z" />
</svg>
