<svg viewBox="0 0 18 18" xmlns="http://www.w3.org/2000/svg">
<path d="M4.04999 4.0503C6.78199 1.3189 11.209 1.3166 13.943 4.0433L11 7L18 6.9667L17.967 7.86317e-07L15.354 2.6257C11.838 -0.878697 6.14699 -0.875198 2.63599 2.636C0.878986 4.3932 0 6.6982 0 9H2C2 7.207 2.68299 5.4173 4.04999 4.0503Z" />
<path d="M13.95 13.9497C15.317 12.5827 16 10.793 16 9H18C18 11.3017 17.121 13.6068 15.364 15.364C11.853 18.8752 6.162 18.8787 2.646 15.3743L0.03302 18L0 11.0333L7 11L4.05701 13.9567C6.79101 16.6834 11.218 16.6811 13.95 13.9497Z" />
</svg>
