<svg xmlns="http://www.w3.org/2000/svg" xmlns:xlink="http://www.w3.org/1999/xlink"><symbol id="icon-back" viewBox="0 0 16 14"><path d="M16 0v14L5 7.2 16 0zM2 0v14H0V0h2z"/></symbol><symbol id="icon-forward" viewBox="0 0 16 14"><path d="M0 0v14l11-6.8L0 0zM14 0v14h2V0h-2z"/></symbol><symbol id="icon-loop" viewBox="0 0 18 18"><path d="M4.05 4.05a7 7 0 019.893-.007L11 7l7-.033L17.967 0l-2.613 2.626A9 9 0 000 9h2c0-1.793.683-3.583 2.05-4.95zM13.95 13.95A6.975 6.975 0 0016 9h2a9 9 0 01-15.354 6.374L.033 18 0 11.033 7 11l-2.943 2.957a7 7 0 009.893-.007z"/></symbol><symbol id="icon-pause" viewBox="0 0 10 14"><path fill-rule="evenodd" clip-rule="evenodd" d="M0 14V0h2v14H0zm8 0V0h2v14H8z"/></symbol><symbol id="icon-play" viewBox="0 0 11 14"><path d="M0 0v14l11-6.8L0 0z"/></symbol><symbol id="icon-shuffle" viewBox="0 0 20 18"><path d="M16 8l4-3.962L16 0v3.112c-2.344.228-4.005.794-5.237 1.62a7.185 7.185 0 00-2.048 2.107c-.428-.73-.977-1.456-1.767-2.067C5.493 3.645 3.365 3 0 3v2c3.135 0 4.757.605 5.724 1.353.877.68 1.334 1.552 1.858 2.65-.072.16-.138.313-.202.459-.363.836-.635 1.462-1.38 2.038-.967.748-2.865 1.5-6 1.5v2c3.365 0 5.493-.645 6.948-1.772.79-.611 1.339-1.338 1.767-2.067a7.185 7.185 0 002.048 2.107c1.232.826 2.893 1.392 5.237 1.62V18l4-3.962L16 10v2.878c-2.003-.217-3.268-.698-4.123-1.271-1.017-.682-1.561-1.56-2.079-2.607.518-1.048 1.062-1.925 2.079-2.607.855-.573 2.12-1.054 4.123-1.27V8z"/></symbol></svg>